<?xml version="1.0" encoding="utf-8"?>
<!-- Generator: Adobe Illustrator 17.0.0, SVG Export Plug-In . SVG Version: 6.00 Build 0)  -->
<!DOCTYPE svg PUBLIC "-//W3C//DTD SVG 1.1//EN" "http://www.w3.org/Graphics/SVG/1.1/DTD/svg11.dtd">
<svg version="1.1" id="Layer_1" xmlns="http://www.w3.org/2000/svg" xmlns:xlink="http://www.w3.org/1999/xlink" x="0px" y="0px"
	 width="83.217px" height="81.91px" viewBox="0 0 83.217 81.91" enable-background="new 0 0 83.217 81.91" xml:space="preserve">
<g>
	<polyline fill="#FFFFFF" points="64.599,37.058 64.599,45.595 64.599,54.132 64.599,62.668 64.599,62.668 64.599,71.204 
		64.599,71.205 64.599,79.741 72.249,75.473 72.249,75.473 72.249,66.937 72.249,66.936 72.249,58.4 	"/>
	<line fill="#FFFFFF" x1="64.6" y1="62.668" x2="64.6" y2="62.668"/>
	<polygon fill="#FFFFFF" points="79.898,62.668 79.898,62.668 79.898,54.132 79.898,45.595 79.898,45.595 79.898,37.059 
		79.898,37.058 79.898,37.059 79.899,37.058 79.898,37.058 79.898,28.522 79.898,28.521 79.898,19.985 79.898,11.448 79.898,11.448 
		79.898,2.912 72.249,7.18 56.949,15.717 41.649,24.253 26.35,15.717 11.05,7.18 3.399,2.911 3.399,2.912 3.399,11.449 
		3.399,11.449 3.399,19.984 11.05,24.253 26.35,32.79 41.649,41.327 56.949,32.79 64.598,28.522 64.598,37.058 72.249,75.473 
		79.899,71.205 79.898,71.205 	"/>
	<polygon fill="#FFFFFF" points="11.05,41.327 3.399,37.059 3.399,45.595 3.399,45.595 3.399,54.131 3.399,54.132 3.399,62.668 
		3.399,62.668 3.399,62.669 3.399,71.204 11.05,75.473 11.05,75.473 18.699,79.741 18.699,71.205 18.699,71.204 18.699,62.668 
		18.699,54.132 18.699,45.595 11.05,41.327 	"/>
	<polygon fill="#FFFFFF" points="79.899,37.058 79.899,37.059 79.899,45.595 79.899,45.595 79.899,54.132 79.899,62.668 
		79.899,62.668 79.899,71.205 79.9,71.205 79.899,37.059 	"/>
	<polygon fill="#FFFFFF" points="79.899,11.448 79.899,19.985 79.899,28.521 79.899,28.522 79.899,37.058 79.9,37.058 79.899,2.912 
		79.899,2.912 79.899,11.448 	"/>
</g>
</svg>
